<svg width="100" height="100" viewBox="0 0 100 100" fill="none" xmlns="http://www.w3.org/2000/svg">
<mask id="mask0_256_4324" style="mask-type:alpha" maskUnits="userSpaceOnUse" x="0" y="0" width="100" height="100">
<rect width="100" height="100" fill="#D9D9D9"/>
</mask>
<g mask="url(#mask0_256_4324)">
<path d="M50 66.4583C51.3194 66.4583 52.3611 66.059 53.125 65.2604C53.8889 64.4618 54.2708 63.4028 54.2708 62.0833C54.2708 60.8333 53.8889 59.809 53.125 59.0104C52.3611 58.2118 51.3194 57.8125 50 57.8125C48.6806 57.8125 47.6389 58.2118 46.875 59.0104C46.1111 59.809 45.7292 60.8681 45.7292 62.1875C45.7292 63.4375 46.1111 64.4618 46.875 65.2604C47.6389 66.059 48.6806 66.4583 50 66.4583ZM46.3542 51.875H53.6458V29.0625H46.3542V51.875ZM50 93.6458C39.7222 91.0764 31.2674 85.1563 24.6354 75.8854C18.0035 66.6146 14.6875 56.4931 14.6875 45.5208V19.375L50 6.14584L85.4167 19.375V45.5208C85.4167 56.4931 82.0833 66.6146 75.4167 75.8854C68.75 85.1563 60.2778 91.0764 50 93.6458Z" fill="#1C1B1F"/>
</g>
</svg>
