<svg width="100" height="100" viewBox="0 0 100 100" fill="none" xmlns="http://www.w3.org/2000/svg">
<mask id="mask0_256_4304" style="mask-type:alpha" maskUnits="userSpaceOnUse" x="0" y="0" width="100" height="100">
<rect width="100" height="100" fill="#D9D9D9"/>
</mask>
<g mask="url(#mask0_256_4304)">
<path d="M50 61.5625C53.6111 61.5625 56.8577 60.7292 59.7396 59.0625C62.6216 57.3958 65 55.1042 66.875 52.1875C64.5139 50.382 61.8924 49.0104 59.0105 48.0729C56.1285 47.1354 53.125 46.6667 50 46.6667C46.875 46.6667 43.8716 47.1354 40.9896 48.0729C38.1077 49.0104 35.5209 50.382 33.2292 52.1875C35.0348 55.1042 37.3785 57.3958 40.2605 59.0625C43.1424 60.7292 46.3889 61.5625 50 61.5625ZM50 40.7292C52.0834 40.7292 53.8542 40 55.3125 38.5417C56.7709 37.0833 57.5 35.3472 57.5 33.3333C57.5 31.25 56.7709 29.4792 55.3125 28.0208C53.8542 26.5625 52.0834 25.8333 50 25.8333C47.9167 25.8333 46.1632 26.5625 44.7396 28.0208C43.316 29.4792 42.6042 31.25 42.6042 33.3333C42.6042 35.4167 43.3334 37.1701 44.7917 38.5938C46.25 40.0174 47.9861 40.7292 50 40.7292ZM50 93.2292C38.4723 83.3681 29.8438 74.2361 24.1146 65.8333C18.3855 57.4306 15.5209 49.6528 15.5209 42.5C15.5209 31.6667 18.9757 23.0556 25.8855 16.6667C32.7952 10.2778 40.8334 7.08334 50 7.08334C59.0973 7.08334 67.1355 10.2951 74.1146 16.7188C81.0938 23.1424 84.5834 31.7361 84.5834 42.5C84.5834 49.6528 81.7014 57.4306 75.9375 65.8333C70.1736 74.2361 61.5278 83.3681 50 93.2292Z" fill="#1C1B1F"/>
</g>
</svg>
