<svg width="100" height="102" viewBox="0 0 100 102" fill="none" xmlns="http://www.w3.org/2000/svg">
<g filter="url(#filter0_d_255_4297)">
<mask id="mask0_255_4297" style="mask-type:alpha" maskUnits="userSpaceOnUse" x="0" y="0" width="100" height="100">
<rect width="100" height="100" fill="#D9D9D9"/>
</mask>
<g mask="url(#mask0_255_4297)">
<path d="M16.4583 49.0625C13.6805 49.0625 11.3194 48.0903 9.37492 46.1459C7.43047 44.2014 6.45825 41.8403 6.45825 39.0625C6.45825 36.2848 7.43047 33.941 9.37492 32.0313C11.3194 30.1216 13.6805 29.1667 16.4583 29.1667C19.236 29.1667 21.5798 30.1216 23.4895 32.0313C25.3992 33.941 26.3541 36.2848 26.3541 39.0625C26.3541 41.8403 25.3992 44.2014 23.4895 46.1459C21.5798 48.0903 19.236 49.0625 16.4583 49.0625ZM36.4583 30.7292C33.6805 30.7292 31.3367 29.757 29.427 27.8125C27.5173 25.8681 26.5624 23.5417 26.5624 20.8334C26.5624 18.0556 27.5173 15.6945 29.427 13.75C31.3367 11.8056 33.6805 10.8334 36.4583 10.8334C39.236 10.8334 41.5971 11.7882 43.5416 13.698C45.486 15.6077 46.4582 17.9514 46.4582 20.7292C46.4582 23.507 45.486 25.8681 43.5416 27.8125C41.5971 29.757 39.236 30.7292 36.4583 30.7292ZM63.5416 30.7292C60.7638 30.7292 58.4027 29.757 56.4583 27.8125C54.5138 25.8681 53.5416 23.507 53.5416 20.7292C53.5416 17.9514 54.5138 15.6077 56.4583 13.698C58.4027 11.7882 60.7638 10.8334 63.5416 10.8334C66.3194 10.8334 68.6631 11.8056 70.5728 13.75C72.4826 15.6945 73.4374 18.0556 73.4374 20.8334C73.4374 23.5417 72.4826 25.8681 70.5728 27.8125C68.6631 29.757 66.3194 30.7292 63.5416 30.7292ZM83.5416 49.0625C80.7638 49.0625 78.4201 48.0903 76.5103 46.1459C74.6006 44.2014 73.6457 41.8403 73.6457 39.0625C73.6457 36.2153 74.6006 33.8542 76.5103 31.9792C78.4201 30.1042 80.7638 29.1667 83.5416 29.1667C86.3194 29.1667 88.6805 30.1216 90.6249 32.0313C92.5694 33.941 93.5416 36.2848 93.5416 39.0625C93.5416 41.8403 92.5694 44.2014 90.6249 46.1459C88.6805 48.0903 86.3194 49.0625 83.5416 49.0625ZM27.1874 93.4375C24.0624 93.4375 21.493 92.2743 19.4791 89.948C17.4652 87.6216 16.4583 84.8264 16.4583 81.5625C16.4583 78.5764 17.3958 75.9028 19.2708 73.5417C21.1458 71.1806 23.1249 68.8889 25.2083 66.6667C26.6666 65 28.0728 63.3334 29.427 61.6667C30.7812 60 32.0833 58.1945 33.3333 56.25C35.486 53.125 37.8645 50.2084 40.4687 47.5C43.0728 44.7917 46.2499 43.4375 49.9999 43.4375C53.7499 43.4375 56.9444 44.8091 59.5832 47.5521C62.2221 50.2952 64.618 53.2292 66.7707 56.3542C67.9513 58.1598 69.2187 59.9306 70.5728 61.6667C71.927 63.4028 73.3333 65.0695 74.7916 66.6667C76.8749 68.8889 78.8541 71.1806 80.7291 73.5417C82.6041 75.9028 83.5416 78.5764 83.5416 81.5625C83.5416 84.8264 82.5346 87.6216 80.5208 89.948C78.5069 92.2743 75.9374 93.4375 72.8124 93.4375C68.9235 93.4375 65.1214 93.125 61.4062 92.5C57.6909 91.875 53.8888 91.5625 49.9999 91.5625C46.111 91.5625 42.3089 91.875 38.5937 92.5C34.8784 93.125 31.0763 93.4375 27.1874 93.4375Z" fill="#1C1B1F"/>
</g>
</g>
<defs>
<filter id="filter0_d_255_4297" x="2.45825" y="10.8334" width="95.0833" height="90.6042" filterUnits="userSpaceOnUse" color-interpolation-filters="sRGB">
<feFlood flood-opacity="0" result="BackgroundImageFix"/>
<feColorMatrix in="SourceAlpha" type="matrix" values="0 0 0 0 0 0 0 0 0 0 0 0 0 0 0 0 0 0 127 0" result="hardAlpha"/>
<feOffset dy="4"/>
<feGaussianBlur stdDeviation="2"/>
<feComposite in2="hardAlpha" operator="out"/>
<feColorMatrix type="matrix" values="0 0 0 0 0 0 0 0 0 0 0 0 0 0 0 0 0 0 0.25 0"/>
<feBlend mode="normal" in2="BackgroundImageFix" result="effect1_dropShadow_255_4297"/>
<feBlend mode="normal" in="SourceGraphic" in2="effect1_dropShadow_255_4297" result="shape"/>
</filter>
</defs>
</svg>
